<svg width="24" height="24" xmlns="http://www.w3.org/2000/svg" fill-rule="evenodd" clip-rule="evenodd"><path d="M21 23.001h-18v-10h-3l12-12.001 4 4v-2.999h4v7l4 4h-3v10zm-18.586-11h1.586v10h16v-10h1.586l-9.586-9.587-9.586 9.587zm14.051 7.999c-.282 0-.707-.088-1.127-.508-1.107-1.165-3.991-4.197-4.147-4.353-.283-.282-.814-.193-.535.366l.183.33-1.491 1.5-3.18-3.181 1.526-1.528.345.246c.441.292.641-.242.768-.565.174-.447.413-1.058 1.28-1.71.731-.551 1.634-.83 2.686-.83 1.688 0 3.177.724 3.239.755l.901.478c-2.702.385-3.41 1.101-3.556 1.511-.066.185.017.395.247.626l4.01 4.332c.388.389.496.982.267 1.535-.247.595-.816.996-1.416.996zm-4.567-5.568c.196.196 3.995 4.192 4.156 4.362.535.535 1.217-.254.839-.632l-4.01-4.332c-.677-.678-.585-1.329-.468-1.655.194-.545.712-.987 1.488-1.291-1.824-.358-2.79.192-3.214.511-.641.482-.791.868-.951 1.275-.01.027-.503 1.657-1.883 1.21l-.273.274 1.766 1.766.286-.286c-.109-.378-.111-.871.272-1.254.504-.504 1.358-.583 1.992.052zm7.102-11.432h-2v3l2 2.001v-5.001z"/></svg>