<svg clip-rule="evenodd" fill-rule="evenodd" stroke-linejoin="round" stroke-miterlimit="2" viewBox="0 0 24 24" xmlns="http://www.w3.org/2000/svg"><path d="m22 5c0-.478-.379-1-1-1h-18c-.62 0-1 .519-1 1v14c0 .621.52 1 1 1h18c.478 0 1-.379 1-1zm-18.5.5h17v13h-17zm5.5 2c0-.276-.224-.5-.5-.5s-.5.224-.5.5v9c0 .276.224.5.5.5s.5-.224.5-.5zm8 0c0-.276-.224-.5-.5-.5s-.5.224-.5.5v9c0 .276.224.5.5.5s.5-.224.5-.5zm2 0c0-.276-.224-.5-.5-.5s-.5.224-.5.5v9c0 .276.224.5.5.5s.5-.224.5-.5zm-13.25-.5c-.414 0-.75.336-.75.75v8.5c0 .414.336.75.75.75s.75-.336.75-.75v-8.5c0-.414-.336-.75-.75-.75zm5.5 0c-.414 0-.75.336-.75.75v8.5c0 .414.336.75.75.75s.75-.336.75-.75v-8.5c0-.414-.336-.75-.75-.75zm3-.013c-.414 0-.75.336-.75.75v8.5c0 .414.336.75.75.75s.75-.336.75-.75v-8.5c0-.414-.336-.75-.75-.75z" fill-rule="nonzero"/></svg>