<svg width="24" height="24" xmlns="http://www.w3.org/2000/svg" fill-rule="evenodd" clip-rule="evenodd"><path d="M24 19h-1v-2.2c-1.853 4.237-6.083 7.2-11 7.2-6.623 0-12-5.377-12-12h1c0 6.071 4.929 11 11 11 4.66 0 8.647-2.904 10.249-7h-2.249v-1h4v4zm-10.772 0h-2.457c-.448-1.286-.489-1.599-.931-1.781-.468-.193-.77.044-1.922.598l-1.736-1.735c.587-1.217.786-1.473.6-1.922-.188-.451-.528-.495-1.782-.932v-2.457c1.285-.448 1.598-.488 1.782-.932.192-.465-.04-.758-.6-1.921l1.736-1.736c1.163.561 1.467.792 1.921.6.46-.191.505-.556.932-1.782h2.457c.449 1.287.49 1.599.932 1.781.466.194.776-.045 1.922-.599l1.735 1.736c-.581 1.208-.784 1.473-.599 1.921.191.46.556.505 1.782.932v2.457c-1.27.442-1.597.487-1.782.933-.187.452.022.722.599 1.921l-1.735 1.735c-1.096-.526-1.452-.798-1.916-.601-.465.193-.508.553-.938 1.784zm-.71-13h-1.036c-.243.722-.462 1.375-1.26 1.705-.744.31-1.383.032-2.098-.314l-.733.733c.363.74.644 1.303.315 2.098-.343.827-.969.991-1.706 1.259v1.046c.723.244 1.375.453 1.706 1.25.332.802.033 1.378-.315 2.1l.733.731c.711-.348 1.355-.622 2.098-.314.757.314 1.011.909 1.259 1.706h1.029c.244-.723.471-1.375 1.272-1.708.773-.32 1.4-.01 2.094.316l.731-.732c-.336-.724-.656-1.268-.313-2.098.344-.828.963-.985 1.706-1.26v-1.036c-.724-.243-1.375-.463-1.706-1.26-.33-.798-.044-1.367.315-2.098l-.732-.733c-.715.344-1.345.627-2.099.315-.789-.327-.994-.922-1.26-1.706zm-.539 8.5c-1.378 0-2.5-1.122-2.5-2.5s1.122-2.5 2.5-2.5 2.5 1.122 2.5 2.5-1.122 2.5-2.5 2.5zm0-4c-.827 0-1.5.673-1.5 1.5s.673 1.5 1.5 1.5 1.5-.673 1.5-1.5-.673-1.5-1.5-1.5zm-7.979-1.5h-4v-4h1v2.2c1.853-4.237 6.083-7.2 11-7.2 6.623 0 12 5.377 12 12h-1c0-6.071-4.929-11-11-11-4.66 0-8.647 2.904-10.249 7h2.249v1z"/></svg>