<svg width="24" height="24" xmlns="http://www.w3.org/2000/svg" fill-rule="evenodd" clip-rule="evenodd"><path d="M1.797 5.753l.888-1.782c.271-.544.801-.901 1.42-.956 1.154-.103 5.426-.135 5.426-.135h.005c.526 0 1.061.051 1.548.367v-.005c0-1.787 1.454-3.242 3.242-3.242s3.242 1.455 3.242 3.242c0 1.765-1.418 3.205-3.177 3.241.397.417.613.958.611 1.535l-.005 8.844 1.976 1.663 2.482-2.733c.593-.654 1.663-.43 1.942.399.936 2.81 2.596 7.788 2.603 7.809h-12s1.714-1.888 3.628-3.993l-4.097-3.448c.074 1.196.31 4.954.357 5.644.029.471-.138.931-.457 1.269-.32.34-.769.528-1.263.528-.746 0-1.395-.485-1.651-1.236-.222-.646-1.595-4.169-1.716-4.535l-.936-1.271s-2.049 4.847-2.512 5.983c-.266.654-.883 1.059-1.611 1.059-.962 0-1.742-.779-1.742-1.736 0-.386 1.256-8.538 1.692-10.853.099-.52.334-1.002.684-1.395.148-.167.372-.393.621-.639l-2.634-2.217c-.202-.17-.329-.414-.352-.679-.023-.264.06-.526.231-.729.346-.411.926-.529 1.555.001zm19.428 16.247l-1.263-3.791-3.444 3.791h4.707zm-16.712-11.348c-.25.262-.47.498-.641.691-.109.123-.183.275-.214.439-.361 1.913-.987 5.99-1.361 8.488.994-2.371 2.39-5.659 2.39-5.659.138-.325.436-.552.786-.6.352-.044.699.093.917.37l2.235 3.01s1.025 2.701 1.142 3.004c-.031-.498-.184-3.181-.226-3.919-.007-.123-.047-.243-.118-.345-.343-.505-1.931-2.971-1.931-2.971l-2.979-2.508zm5.496 2.144l1.322 1.112-.658-1.92-.664.808zm-1.476-1.374l1.881-2.222c.243-.287.631-.411.992-.327.365.086.652.37.743.734l.85 3.145.001-4.551c0-.207-.083-.406-.232-.551l-2.559-2.52c-.12-.116-.278-.181-.443-.182-.886-.006-3.811-.022-5.046.031-.194.012-.347.138-.452.301l-.993 1.552 1.451-.832h2.424c.523.013.996.836.328 1.459-.016.016-.706.822-1.563 1.76l2.618 2.203zm5.793-9.422c-.686 0-1.242.557-1.242 1.242 0 .685.556 1.241 1.242 1.241.684 0 1.242-.556 1.242-1.241s-.558-1.242-1.242-1.242z"/></svg>